<svg width="1001" height="1000" viewBox="0 0 1001 1000" fill="none" xmlns="http://www.w3.org/2000/svg">
<circle cx="844.981" cy="584.83" r="100" fill="#EF5DA8"/>
<circle cx="155.753" cy="584.83" r="100" fill="#EF5DA8"/>
<rect x="209.649" y="677.444" width="581.435" height="200" rx="100" fill="#5D5FEF"/>
<path d="M500.367 290.444C445.139 290.444 400.367 245.672 400.367 190.444L400.367 121.297C400.367 74.5879 438.232 36.7231 484.941 36.7231L515.794 36.7231C562.502 36.7231 600.367 74.588 600.367 121.297L600.367 190.444C600.367 245.672 555.596 290.444 500.367 290.444V290.444Z" fill="#EF5DA8"/>
<circle cx="500.367" cy="877.444" r="100" fill="#EF5DA8"/>
<rect x="36.2856" y="290.444" width="439.299" height="200" rx="100" fill="#5D5FEF"/>
<rect x="525.15" y="290.444" width="439.299" height="200" rx="100" fill="#5D5FEF"/>
<rect x="397.953" y="484.83" width="204.83" height="187" rx="93.5" fill="#5D5FEF"/>
</svg>
